<svg xmlns="http://www.w3.org/2000/svg" width="1em" height="1em" fill="currentColor" viewBox="0 0 24 24"><path fill-rule="evenodd" d="M6.094 12.463v-.088c0-1.225.096-2.396.275-3.486H2.677a9.525 9.525 0 0 0-.487 5.303l-1.271.563a11 11 0 0 1-.263-2.38C.656 6.379 5.535 1.5 11.531 1.5s10.875 4.879 10.875 10.875S17.528 23.25 11.531 23.25c-.81 0-1.6-.09-2.361-.258l.818-1.891c.5.512 1.03.79 1.543.79 1.33 0 2.764-1.857 3.527-4.846h-3.314l.588-1.36h3.011c.17-1.013.266-2.123.266-3.31a20 20 0 0 0-.296-3.486h-.06l.254-.595-1.343.595H7.75a19.6 19.6 0 0 0-.29 2.969zM8.44 3.375a9.57 9.57 0 0 0-5.096 4.154h3.3c.41-1.684 1.03-3.112 1.796-4.154m8.02 13.67c-.408 1.76-1.045 3.251-1.837 4.33a9.57 9.57 0 0 0 5.197-4.33zm3.992-1.357-.059-.003h-3.671c.16-1.04.247-2.15.247-3.31 0-1.225-.097-2.396-.275-3.486h3.691a9.5 9.5 0 0 1 .662 3.486c0 1.165-.21 2.28-.595 3.313m-4.033-8.159h3.299a9.57 9.57 0 0 0-5.095-4.154c.766 1.042 1.386 2.47 1.796 4.154M11.53 2.86c-1.303 0-2.706 1.784-3.48 4.67h6.96c-.773-2.886-2.177-4.67-3.48-4.67" clip-rule="evenodd"></path><path fill-rule="evenodd" d="M13.23 11.73 4.947 15.42l2.338 1.204 1.189 2.368 1.227-2.796-.805.35-1.112-1.087 4.754-2.136-3.949 9.125-2.377-4.737-4.678-2.408L14.073 9.75z" clip-rule="evenodd"></path><path fill-rule="evenodd" d="m5.751 18.214 2.339 4.737L7.016 24l-2.032-4.038-1.802 1.825-.997-1.01 1.803-1.824L0 16.894l1.035-1.087z" clip-rule="evenodd"></path></svg>