<svg xmlns="http://www.w3.org/2000/svg" width="1em" height="1em" fill="currentColor" viewBox="0 0 24 24"><path d="m10.025 13.34 1.015 1.37-1.228 1.275-1.393-.945a4 4 0 0 1-.874.378l-.26 1.677-1.77.023-.331-1.653a6 6 0 0 1-.898-.354l-1.37 1.015-1.275-1.228.945-1.417a4 4 0 0 1-.378-.873l-1.677-.26v-1.771l1.677-.33c.094-.308.213-.615.354-.875l-1.015-1.37 1.228-1.275 1.393.969c.283-.166.567-.284.874-.378l.26-1.7 1.77-.024.308 1.677c.307.094.59.188.874.354l1.393-1.016 1.275 1.228-.968 1.394c.165.283.283.566.378.873l1.676.26.024 1.771-1.677.307a2.6 2.6 0 0 1-.33.898M6.27 9.75c-.898.024-1.606.756-1.582 1.63.023.897.755 1.605 1.63 1.582.897-.024 1.605-.756 1.581-1.63-.023-.897-.755-1.605-1.63-1.582"></path><path d="m21.763 16.245.023 1.771-1.676.307c-.071.307-.19.614-.355.898l1.016 1.37-1.228 1.251-1.393-.944a4 4 0 0 1-.874.377l-.26 1.677-1.771.024-.33-1.653a6 6 0 0 1-.898-.355l-1.37 1.016-1.275-1.228.944-1.417a4 4 0 0 1-.377-.874l-1.677-.26-.024-1.77 1.677-.331c.095-.307.213-.614.354-.874l-1.015-1.37 1.228-1.275 1.393.968c.284-.165.567-.283.874-.378l.26-1.7 1.77-.024.308 1.677c.307.094.59.189.874.354l1.393-1.015 1.275 1.228-.968 1.393c.165.283.283.567.378.874zM16 15.608c-.898.023-1.606.755-1.583 1.63.024.896.756 1.605 1.63 1.581.897-.023 1.606-.755 1.582-1.63 0-.873-.732-1.581-1.63-1.581"></path><path fill-rule="evenodd" d="M14.077.698a2.662 2.662 0 0 1 3.323 3.66l4.77 4.344a1.026 1.026 0 0 1 0 1.446l-.21.21a1.026 1.026 0 0 1-1.446 0l-4.343-4.77a2.663 2.663 0 0 1-3.66-3.324l1.569 1.569a.356.356 0 0 0 .502 0l1.064-1.064a.356.356 0 0 0 0-.502z" clip-rule="evenodd"></path></svg>